#!OML:ASF H:\ManfredETheater\Project 1\Capture day 1\Session 1\subject.ASF
:FULLY-SPECIFIED
:DEGREES
185
root 1.57501 16.8431 -38.6186 -174.111 3.11359 175.766
lowerback 10.1506 -2.01685 -5.70541
upperback -3.01314 -3.30237 2.0259
thorax -8.49076 -1.23712 5.95297
lowerneck -22.2624 1.4825 -1.22193
upperneck 11.2446 3.09104 -3.69856
head 7.09932 1.11336 -0.638978
rclavicle 1.13307e-014 -1.35174e-014
rhumerus -75.0819 -5.05113 -78.2348
rradius 107.368
rwrist -6.09078
rhand -11.5628 11.3541
rfingers 7.12502
rthumb 14.4782 -18.1208
lclavicle 1.13307e-014 -1.35174e-014
lhumerus -41.3758 -23.7936 101.358
lradius 116.417
lwrist 9.97615
lhand -22.0027 -15.9699
lfingers 7.12502
lthumb 4.40621 13.9643
rfemur -46.982 -3.99522 18.2243
rtibia 45.5793
rfoot -11.3278 -1.69511
rtoes -41.3423
lfemur 4.14272 -4.83927 -28.3966
ltibia 65.4746
lfoot 10.9937 -6.93225
ltoes 5.41252
186
root 1.59079 16.7636 -39.0558 -174.768 3.55187 177.192
lowerback 11.1205 -1.81745 -4.35122
upperback -2.69488 -2.82797 2.52817
thorax -8.80522 -1.05126 5.69265
lowerneck -22.0873 1.53318 -1.10325
upperneck 10.7859 3.17954 -4.07412
head 6.9313 1.14502 -0.77124
rclavicle 7.65321e-015 1.11319e-014
rhumerus -73.3232 -5.27865 -78.4567
rradius 106.467
rwrist -6.31761
rhand -11.7807 11.4522
rfingers 7.12502
rthumb 14.2683 -18.0377
lclavicle 7.65321e-015 1.11319e-014
lhumerus -41.7243 -22.5213 101.964
lradius 114.333
lwrist 9.09282
lhand -22.1606 -16.1733
lfingers 7.12502
lthumb 4.25368 13.7639
rfemur -46.2477 -3.50437 19.7692
rtibia 48.4826
rfoot -11.9976 -1.45346
rtoes -39.0012
lfemur 2.98555 -4.05393 -26.603
ltibia 69.099
lfoot 10.361 -7.4898
ltoes 5.76495
187
root 1.60854 16.7296 -39.5002 -175.312 3.95201 178.683
lowerback 11.9738 -1.67059 -2.94415
upperback -2.37513 -2.36577 3.04135
thorax -9.03924 -0.870687 5.39647
lowerneck -21.9757 1.59136 -0.931052
upperneck 10.3698 3.26254 -4.44378
head 6.78915 1.17606 -0.909997
rclavicle -8.64713e-015 -1.43125e-014
rhumerus -71.2588 -5.43047 -78.7823
rradius 105.236
rwrist -6.74589
rhand -12.0952 11.4777
rfingers 7.12502
rthumb 13.9652 -18.0333
lclavicle -8.64713e-015 -1.43125e-014
lhumerus -41.9491 -21.1672 102.456
lradius 112.028
lwrist 8.32985
lhand -22.3939 -16.2911
lfingers 7.12502
lthumb 4.02842 13.6506
rfemur -45.1056 -3.01441 21.3767
rtibia 50.9064
rfoot -13.0343 -1.63484
rtoes -36.3312
lfemur 1.67818 -3.29145 -24.6252
ltibia 72.5154
lfoot 9.67508 -8.15448
ltoes 5.89897
188
root 1.62828 16.6593 -39.9334 -175.699 4.27102 180.128
lowerback 12.6666 -1.57684 -1.6028
upperback -2.09517 -1.94798 3.5322
thorax -9.20688 -0.705027 5.10547
lowerneck -21.9055 1.64597 -0.731456
upperneck 10.0302 3.32477 -4.76181
head 6.67832 1.20013 -1.03827
rclavicle -1.30204e-014 -2.38542e-015
rhumerus -68.9325 -5.47878 -79.1999
rradius 103.663
rwrist -7.32565
rhand -12.5498 11.4275
rfingers 7.12502
rthumb 13.5272 -18.1131
lclavicle -1.30204e-014 -2.38542e-015
lhumerus -42.0836 -19.7543 102.826
lradius 109.462
lwrist 7.7638
lhand -22.6755 -16.3221
lfingers 7.12502
lthumb 3.75646 13.6246
rfemur -44.0345 -2.5594 22.9516
rtibia 53.0375
rfoot -14.083 -2.03075
rtoes -33.7032
lfemur 0.0244594 -2.58398 -22.6096
ltibia 76.0073
lfoot 8.76785 -8.84661
ltoes 5.74098
